HIERARCHY
ROOT mixamorig:Hips
{
	OFFSET 0.000000 201.639420 0.000000
	CHANNELS 6 Xposition Yposition Zposition Xrotation Yrotation Zrotation
	JOINT mixamorig:Spine
	{
		OFFSET 0.006200 19.524994 -2.481800
		CHANNELS 3 Xrotation Yrotation Zrotation
		JOINT mixamorig:Spine1
		{
			OFFSET -0.000900 22.835007 -2.825400
			CHANNELS 3 Xrotation Yrotation Zrotation
			JOINT mixamorig:Spine2
			{
				OFFSET -0.020600 26.552490 -3.193300
				CHANNELS 3 Xrotation Yrotation Zrotation
				JOINT mixamorig:Neck
				{
					OFFSET -0.060000 30.701813 1.352200
					CHANNELS 3 Xrotation Yrotation Zrotation
					JOINT mixamorig:Head
					{
						OFFSET -0.087200 22.547607 3.670900
						CHANNELS 3 Xrotation Yrotation Zrotation
						JOINT mixamorig:HeadTop_End
						{
							OFFSET -0.830600 40.355194 7.893500
							CHANNELS 3 Xrotation Yrotation Zrotation
							End Site
							{
								OFFSET 0.000000 30.592346 0.000000
							}
						}
						JOINT mixamorig:RightEye
						{
							OFFSET -6.302100 18.118591 16.197100
							CHANNELS 3 Xrotation Yrotation Zrotation
							End Site
							{
								OFFSET 0.000000 30.592346 0.000000
							}
						}
						JOINT mixamorig:LeftEye
						{
							OFFSET 6.741500 18.382690 16.401899
							CHANNELS 3 Xrotation Yrotation Zrotation
							End Site
							{
								OFFSET 0.000000 30.592346 0.000000
							}
						}
					}
				}
				JOINT mixamorig:LeftShoulder
				{
					OFFSET 11.924900 18.230499 1.425400
					CHANNELS 3 Xrotation Yrotation Zrotation
					JOINT mixamorig:LeftArm
					{
						OFFSET 25.435989 -0.697632 -5.229300
						CHANNELS 3 Xrotation Yrotation Zrotation
						JOINT mixamorig:LeftForeArm
						{
							OFFSET 54.684776 0.000000 0.000000
							CHANNELS 3 Xrotation Yrotation Zrotation
							JOINT mixamorig:LeftHand
							{
								OFFSET 55.098175 0.000000 0.000000
								CHANNELS 3 Xrotation Yrotation Zrotation
								JOINT mixamorig:LeftHandMiddle1
								{
									OFFSET 23.369751 0.000000 0.000000
									CHANNELS 3 Xrotation Yrotation Zrotation
									JOINT mixamorig:LeftHandMiddle2
									{
										OFFSET 6.378677 0.000000 0.000000
										CHANNELS 3 Xrotation Yrotation Zrotation
										JOINT mixamorig:LeftHandMiddle3
										{
											OFFSET 6.148331 0.000000 0.000000
											CHANNELS 3 Xrotation Yrotation Zrotation
											JOINT mixamorig:LeftHandMiddle4
											{
												OFFSET 6.582504 0.000000 0.000000
												CHANNELS 3 Xrotation Yrotation Zrotation
												End Site
												{
													OFFSET -1.168900 6.395691 1.028606
												}
											}
										}
									}
								}
								JOINT mixamorig:LeftHandThumb1
								{
									OFFSET 7.235672 -3.848206 5.434273
									CHANNELS 3 Xrotation Yrotation Zrotation
									JOINT mixamorig:LeftHandThumb2
									{
										OFFSET 6.568451 -3.792297 3.792300
										CHANNELS 3 Xrotation Yrotation Zrotation
										JOINT mixamorig:LeftHandThumb3
										{
											OFFSET 6.063080 -3.500519 3.500518
											CHANNELS 3 Xrotation Yrotation Zrotation
											JOINT mixamorig:LeftHandThumb4
											{
												OFFSET 4.793182 -2.767334 2.767349
												CHANNELS 3 Xrotation Yrotation Zrotation
												End Site
												{
													OFFSET 0.101639 6.054260 1.275483
												}
											}
										}
									}
								}
								JOINT mixamorig:LeftHandIndex1
								{
									OFFSET 23.101074 -0.309540 4.992809
									CHANNELS 3 Xrotation Yrotation Zrotation
									JOINT mixamorig:LeftHandIndex2
									{
										OFFSET 6.226883 0.000000 0.000000
										CHANNELS 3 Xrotation Yrotation Zrotation
										JOINT mixamorig:LeftHandIndex3
										{
											OFFSET 6.094330 0.000000 0.000000
											CHANNELS 3 Xrotation Yrotation Zrotation
											JOINT mixamorig:LeftHandIndex4
											{
												OFFSET 5.482605 0.000000 0.000000
												CHANNELS 3 Xrotation Yrotation Zrotation
												End Site
												{
													OFFSET -1.427902 5.233032 0.797164
												}
											}
										}
									}
								}
								JOINT mixamorig:LeftHandRing1
								{
									OFFSET 22.299240 0.021149 -3.964172
									CHANNELS 3 Xrotation Yrotation Zrotation
									JOINT mixamorig:LeftHandRing2
									{
										OFFSET 6.321869 0.000000 0.000000
										CHANNELS 3 Xrotation Yrotation Zrotation
										JOINT mixamorig:LeftHandRing3
										{
											OFFSET 5.899796 0.000000 0.000000
											CHANNELS 3 Xrotation Yrotation Zrotation
											JOINT mixamorig:LeftHandRing4
											{
												OFFSET 6.517899 0.000000 0.000000
												CHANNELS 3 Xrotation Yrotation Zrotation
												End Site
												{
													OFFSET -1.637299 6.232208 0.980890
												}
											}
										}
									}
								}
								JOINT mixamorig:LeftHandPinky1
								{
									OFFSET 20.463791 -0.302338 -8.562233
									CHANNELS 3 Xrotation Yrotation Zrotation
									JOINT mixamorig:LeftHandPinky2
									{
										OFFSET 6.908646 0.000000 0.000000
										CHANNELS 3 Xrotation Yrotation Zrotation
										JOINT mixamorig:LeftHandPinky3
										{
											OFFSET 4.622849 0.000000 0.000000
											CHANNELS 3 Xrotation Yrotation Zrotation
											JOINT mixamorig:LeftHandPinky4
											{
												OFFSET 5.216080 0.000000 0.000000
												CHANNELS 3 Xrotation Yrotation Zrotation
												End Site
												{
													OFFSET -0.606308 5.116241 0.814926
												}
											}
										}
									}
								}
							}
						}
					}
				}
				JOINT mixamorig:RightShoulder
				{
					OFFSET -12.001300 18.284088 1.348900
					CHANNELS 3 Xrotation Yrotation Zrotation
					JOINT mixamorig:RightArm
					{
						OFFSET -25.308500 -0.751312 -5.164599
						CHANNELS 3 Xrotation Yrotation Zrotation
						JOINT mixamorig:RightForeArm
						{
							OFFSET -54.684429 0.000000 0.000000
							CHANNELS 3 Xrotation Yrotation Zrotation
							JOINT mixamorig:RightHand
							{
								OFFSET -55.150291 0.000000 0.000000
								CHANNELS 3 Xrotation Yrotation Zrotation
								JOINT mixamorig:RightHandMiddle1
								{
									OFFSET -23.317566 0.000000 0.000000
									CHANNELS 3 Xrotation Yrotation Zrotation
									JOINT mixamorig:RightHandMiddle2
									{
										OFFSET -6.378403 0.000000 0.000000
										CHANNELS 3 Xrotation Yrotation Zrotation
										JOINT mixamorig:RightHandMiddle3
										{
											OFFSET -6.148193 0.000000 0.000000
											CHANNELS 3 Xrotation Yrotation Zrotation
											JOINT mixamorig:RightHandMiddle4
											{
												OFFSET -6.583389 0.000000 0.000000
												CHANNELS 3 Xrotation Yrotation Zrotation
												End Site
												{
													OFFSET 1.171692 6.395905 1.029786
												}
											}
										}
									}
								}
								JOINT mixamorig:RightHandThumb1
								{
									OFFSET -7.190521 -3.860474 5.435846
									CHANNELS 3 Xrotation Yrotation Zrotation
									JOINT mixamorig:RightHandThumb2
									{
										OFFSET -6.567429 -3.791718 3.791708
										CHANNELS 3 Xrotation Yrotation Zrotation
										JOINT mixamorig:RightHandThumb3
										{
											OFFSET -6.062469 -3.500153 3.500166
											CHANNELS 3 Xrotation Yrotation Zrotation
											JOINT mixamorig:RightHandThumb4
											{
												OFFSET -4.792618 -2.767029 2.767022
												CHANNELS 3 Xrotation Yrotation Zrotation
												End Site
												{
													OFFSET -0.100327 6.053253 1.276754
												}
											}
										}
									}
								}
								JOINT mixamorig:RightHandIndex1
								{
									OFFSET -23.048981 -0.310791 4.992554
									CHANNELS 3 Xrotation Yrotation Zrotation
									JOINT mixamorig:RightHandIndex2
									{
										OFFSET -6.227539 0.000000 0.000000
										CHANNELS 3 Xrotation Yrotation Zrotation
										JOINT mixamorig:RightHandIndex3
										{
											OFFSET -6.095047 0.000000 0.000000
											CHANNELS 3 Xrotation Yrotation Zrotation
											JOINT mixamorig:RightHandIndex4
											{
												OFFSET -5.484772 0.000000 0.000000
												CHANNELS 3 Xrotation Yrotation Zrotation
												End Site
												{
													OFFSET 1.420593 5.237305 0.797056
												}
											}
										}
									}
								}
								JOINT mixamorig:RightHandRing1
								{
									OFFSET -22.246323 0.020569 -3.963762
									CHANNELS 3 Xrotation Yrotation Zrotation
									JOINT mixamorig:RightHandRing2
									{
										OFFSET -6.322128 0.000000 0.000000
										CHANNELS 3 Xrotation Yrotation Zrotation
										JOINT mixamorig:RightHandRing3
										{
											OFFSET -5.900024 0.000000 0.000000
											CHANNELS 3 Xrotation Yrotation Zrotation
											JOINT mixamorig:RightHandRing4
											{
												OFFSET -6.518356 0.000000 0.000000
												CHANNELS 3 Xrotation Yrotation Zrotation
												End Site
												{
													OFFSET 1.636398 6.232697 0.982186
												}
											}
										}
									}
								}
								JOINT mixamorig:RightHandPinky1
								{
									OFFSET -20.411011 -0.303314 -8.561701
									CHANNELS 3 Xrotation Yrotation Zrotation
									JOINT mixamorig:RightHandPinky2
									{
										OFFSET -6.907349 0.000000 0.000000
										CHANNELS 3 Xrotation Yrotation Zrotation
										JOINT mixamorig:RightHandPinky3
										{
											OFFSET -4.623840 0.000000 0.000000
											CHANNELS 3 Xrotation Yrotation Zrotation
											JOINT mixamorig:RightHandPinky4
											{
												OFFSET -5.218353 0.000000 0.000000
												CHANNELS 3 Xrotation Yrotation Zrotation
												End Site
												{
													OFFSET 0.602097 5.118835 0.816273
												}
											}
										}
									}
								}
							}
						}
					}
				}
			}
		}
	}
	JOINT mixamorig:LeftUpLeg
	{
		OFFSET 18.168400 -13.561905 -0.039000
		CHANNELS 3 Xrotation Yrotation Zrotation
		JOINT mixamorig:LeftLeg
		{
			OFFSET 0.577358 -80.825211 -3.695000
			CHANNELS 3 Xrotation Yrotation Zrotation
			JOINT mixamorig:LeftFoot
			{
				OFFSET -0.577356 -83.370262 -6.520700
				CHANNELS 3 Xrotation Yrotation Zrotation
				JOINT mixamorig:LeftToeBase
				{
					OFFSET 0.750401 -20.798306 25.135401
					CHANNELS 3 Xrotation Yrotation Zrotation
					JOINT mixamorig:LeftToe_End
					{
						OFFSET -0.000500 0.001200 19.917799
						CHANNELS 3 Xrotation Yrotation Zrotation
						End Site
						{
							OFFSET 0.000000 19.917805 0.000000
						}
					}
				}
			}
		}
	}
	JOINT mixamorig:RightUpLeg
	{
		OFFSET -18.162500 -13.585098 -0.041000
		CHANNELS 3 Xrotation Yrotation Zrotation
		JOINT mixamorig:RightLeg
		{
			OFFSET -0.595024 -80.945297 -3.631900
			CHANNELS 3 Xrotation Yrotation Zrotation
			JOINT mixamorig:RightFoot
			{
				OFFSET 0.595024 -83.218193 -6.561200
				CHANNELS 3 Xrotation Yrotation Zrotation
				JOINT mixamorig:RightToeBase
				{
					OFFSET -0.753601 -20.807106 25.115000
					CHANNELS 3 Xrotation Yrotation Zrotation
					JOINT mixamorig:RightToe_End
					{
						OFFSET 0.000299 0.001700 19.918200
						CHANNELS 3 Xrotation Yrotation Zrotation
						End Site
						{
							OFFSET 0.000000 19.918203 0.000000
						}
					}
				}
			}
		}
	}
}
MOTION
Frames: 4
Frame Time: 0.033333
-0.055614 183.585068 0.340194 1.584851 -3.961644 -0.033480 4.530651 -0.545520 -3.128895 9.047555 -0.889398 -0.243487 9.045833 -0.939107 -0.200586 -9.301708 1.055816 0.897118 -10.821820 6.204388 2.076119 0.000000 -0.000000 0.000000 0.000000 -0.000000 0.000000 0.000000 -0.000000 0.000000 -0.034438 8.369787 -11.567762 -26.141391 -17.099764 -62.961893 -0.000004 -25.069958 -0.000016 -2.425773 3.239573 -6.583673 0.284515 3.952522 -15.747541 0.200034 1.519327 -15.000313 0.211994 1.563227 -15.444612 -0.000000 -0.000001 0.000000 -5.168834 8.914444 7.632047 5.984803 12.669589 1.353362 -7.330843 -0.411352 13.152305 0.000001 0.000001 0.000000 0.231367 3.750775 -13.708243 0.100077 1.079378 -10.594405 0.100086 1.079380 -10.594399 -0.000000 -0.000000 -0.000001 0.446380 4.441613 -20.786803 0.388985 2.100951 -20.976389 0.412090 2.160211 -21.597965 0.000000 -0.000003 -0.000002 0.842860 5.276725 -29.845147 0.625731 2.636331 -26.700243 0.625746 2.636337 -26.700234 -0.000002 -0.000000 -0.000002 1.166044 2.205046 10.975113 -13.709643 14.197033 55.046397 0.000002 28.511887 0.000006 26.246404 9.142919 15.784321 0.182905 -3.394919 13.801219 0.129283 -1.090877 13.517900 0.137018 -1.122558 13.918181 0.000000 0.000001 -0.000003 -6.154707 -7.385304 -7.071927 6.367669 -14.469899 -2.116755 -5.500304 -5.521568 -14.723017 0.000000 -0.000003 -0.000000 0.161329 -3.303295 12.644324 0.074153 -0.828651 10.227202 0.074150 -0.828665 10.227184 -0.000002 0.000000 0.000001 0.267855 -3.696084 17.647836 0.230478 -1.448341 18.081778 0.244193 -1.489720 18.617330 0.000001 -0.000000 -0.000003 0.484130 -4.249399 24.958245 0.356023 -1.787554 22.526297 0.356022 -1.787539 22.526307 0.000002 -0.000000 0.000001 -33.925553 11.447143 4.922516 53.382525 -0.636643 -0.032772 -21.754728 0.216787 0.321599 -0.581111 0.000005 0.000001 -0.000000 0.000001 0.000000 -68.009198 -0.952334 -0.626227 116.402775 3.505347 0.188703 -21.774110 1.414914 -6.683255 8.580470 -0.000001 0.000000 0.000000 -0.000000 0.000000 
-0.215063 185.766373 2.565935 1.992425 -3.735850 -1.511204 4.605362 -0.877564 -2.286833 9.226878 -1.467870 0.853041 9.201450 -1.543326 0.865525 -9.885188 1.358950 0.657185 -12.242136 7.302438 2.165185 0.000000 -0.000000 -0.000000 0.000000 -0.000000 -0.000000 0.000000 -0.000000 -0.000000 -0.036559 8.889164 -12.163219 -24.687220 -19.680610 -62.152850 0.000009 -30.376945 0.000026 -6.674454 4.255495 -6.638146 0.284516 3.952522 -15.747537 0.200036 1.519330 -15.000318 0.211995 1.563233 -15.444613 0.000001 -0.000000 0.000003 -5.168835 8.914442 7.632046 5.984808 12.669587 1.353365 -7.330845 -0.411353 13.152308 0.000001 -0.000001 0.000001 0.231366 3.750773 -13.708240 0.100078 1.079378 -10.594405 0.100092 1.079376 -10.594398 -0.000000 -0.000001 0.000002 0.446387 4.441611 -20.786805 0.388986 2.100955 -20.976385 0.412090 2.160210 -21.597968 -0.000000 -0.000001 0.000003 0.842864 5.276723 -29.845147 0.625732 2.636329 -26.700246 0.625741 2.636338 -26.700234 0.000000 -0.000000 0.000002 1.129497 2.366039 10.622933 -13.895062 15.227854 54.518724 0.000002 29.545817 -0.000007 25.977298 9.438311 15.633603 0.182903 -3.394921 13.801219 0.129287 -1.090877 13.517903 0.137022 -1.122558 13.918177 0.000001 -0.000000 0.000001 -6.154706 -7.385304 -7.071926 6.367665 -14.469904 -2.116760 -5.500301 -5.521566 -14.723024 -0.000001 -0.000004 0.000000 0.161323 -3.303296 12.644326 0.074148 -0.828648 10.227196 0.074154 -0.828666 10.227183 0.000002 -0.000001 0.000001 0.267855 -3.696084 17.647836 0.230477 -1.448341 18.081782 0.244195 -1.489723 18.617328 0.000001 -0.000004 -0.000002 0.484130 -4.249400 24.958247 0.356025 -1.787557 22.526300 0.356017 -1.787537 22.526307 0.000000 0.000001 0.000002 -32.731773 12.933826 6.446292 50.876177 -2.651332 1.371436 -21.249270 0.227660 0.273479 -0.581107 0.000002 -0.000001 -0.000000 0.000001 -0.000000 -73.820753 -3.029493 -0.113477 117.199762 4.609910 0.251251 -24.240148 1.417736 -6.512622 8.289860 0.000000 -0.000002 0.000001 0.000000 -0.000000 
-0.366953 187.509888 4.918711 2.542828 -2.974511 -3.034856 4.690970 -1.191932 -1.303113 9.386907 -2.121286 1.940591 9.341232 -2.219820 1.924987 -10.441813 1.558782 0.492369 -13.634374 8.015235 2.253494 0.000000 -0.000000 0.000000 0.000000 -0.000000 0.000000 0.000000 -0.000000 0.000000 -0.035318 8.816002 -12.210517 -23.502544 -22.037867 -61.469435 0.000002 -35.281318 0.000020 -9.421896 5.249651 -6.069616 0.284512 3.952520 -15.747537 0.200032 1.519326 -15.000320 0.211995 1.563232 -15.444612 0.000001 -0.000000 0.000002 -5.168837 8.914442 7.632049 5.984805 12.669589 1.353366 -7.330841 -0.411351 13.152311 0.000001 0.000000 0.000000 0.231363 3.750774 -13.708239 0.100080 1.079381 -10.594405 0.100088 1.079380 -10.594395 -0.000002 -0.000001 -0.000002 0.446383 4.441610 -20.786801 0.388984 2.100956 -20.976385 0.412089 2.160212 -21.597968 -0.000001 -0.000001 -0.000002 0.842860 5.276724 -29.845147 0.625735 2.636332 -26.700248 0.625745 2.636334 -26.700239 0.000000 0.000001 0.000001 1.106189 2.446364 10.435718 -13.525356 16.121169 53.664708 0.000003 31.484597 -0.000006 25.783255 9.321961 15.506981 0.182904 -3.394920 13.801218 0.129292 -1.090878 13.517905 0.137017 -1.122556 13.918178 0.000004 0.000000 0.000001 -6.154697 -7.385305 -7.071928 6.367662 -14.469901 -2.116756 -5.500305 -5.521568 -14.723019 -0.000003 -0.000001 0.000004 0.161331 -3.303295 12.644321 0.074153 -0.828651 10.227199 0.074153 -0.828667 10.227182 -0.000002 0.000000 -0.000000 0.267863 -3.696084 17.647834 0.230478 -1.448341 18.081780 0.244191 -1.489721 18.617328 -0.000002 -0.000000 0.000001 0.484138 -4.249400 24.958242 0.356015 -1.787554 22.526300 0.356024 -1.787541 22.526307 0.000001 0.000002 0.000000 -32.093765 14.354483 7.859771 49.004715 -5.031388 2.980215 -20.961798 0.240557 0.209459 -0.581111 -0.000002 -0.000001 0.000000 0.000001 0.000000 -77.954288 -5.390013 -0.157845 114.710964 5.813410 0.319680 -25.630809 1.236352 -6.144336 7.587069 0.000002 0.000002 -0.000002 0.000000 0.000000 
-0.583413 188.701523 7.456812 3.155830 -2.124978 -4.298801 4.767002 -1.398838 -0.475396 9.505307 -2.669251 2.874126 9.441141 -2.792914 2.836368 -10.892723 1.644292 0.431120 -14.955012 8.347346 2.223066 -0.000000 -0.000000 0.000000 -0.000000 -0.000000 0.000000 -0.000000 -0.000000 0.000000 -0.036700 8.283799 -11.738243 -23.228024 -23.728523 -61.391106 -0.000004 -39.050206 -0.000009 -10.679201 5.978712 -5.427055 0.284518 3.952516 -15.747539 0.200037 1.519330 -15.000316 0.211998 1.563227 -15.444615 -0.000002 -0.000002 -0.000003 -5.168834 8.914436 7.632046 5.984806 12.669588 1.353367 -7.330845 -0.411353 13.152310 0.000002 0.000001 0.000001 0.231367 3.750771 -13.708240 0.100078 1.079380 -10.594404 0.100094 1.079379 -10.594396 -0.000002 -0.000002 -0.000001 0.446386 4.441606 -20.786801 0.388989 2.100952 -20.976383 0.412087 2.160214 -21.597963 -0.000003 0.000000 0.000002 0.842862 5.276721 -29.845150 0.625731 2.636339 -26.700246 0.625738 2.636334 -26.700244 -0.000001 -0.000001 0.000002 1.097506 2.478974 10.375833 -12.836152 16.699401 52.652415 -0.000004 33.925068 0.000009 25.601856 9.042039 15.108652 0.182900 -3.394922 13.801221 0.129287 -1.090877 13.517904 0.137027 -1.122559 13.918180 0.000004 -0.000002 -0.000003 -6.154706 -7.385306 -7.071927 6.367672 -14.469897 -2.116756 -5.500305 -5.521567 -14.723016 -0.000007 0.000001 0.000003 0.161328 -3.303295 12.644320 0.074152 -0.828653 10.227198 0.074154 -0.828667 10.227181 0.000002 -0.000001 -0.000002 0.267852 -3.696087 17.647838 0.230479 -1.448339 18.081782 0.244194 -1.489722 18.617333 0.000002 -0.000001 0.000001 0.484133 -4.249398 24.958245 0.356026 -1.787555 22.526295 0.356019 -1.787540 22.526311 -0.000001 -0.000000 -0.000000 -31.786550 15.594391 9.106683 47.835339 -7.322734 4.348704 -21.032932 0.252220 0.149175 -0.581112 0.000001 0.000001 0.000000 0.000001 -0.000000 -80.061394 -7.286647 -0.224971 109.752042 7.304933 0.396364 -26.245977 0.852551 -5.486524 6.566702 0.000003 0.000001 0.000000 0.000000 0.000000 
